<svg xmlns="http://www.w3.org/2000/svg" xmlns:xlink="http://www.w3.org/1999/xlink" width="300" zoomAndPan="magnify" viewBox="0 0 224.87999 112.499997" height="150" preserveAspectRatio="xMidYMid meet" version="1.0"><defs><g/><clipPath id="9f25667038"><path d="M 70.917969 7.949219 L 165.921875 7.949219 L 165.921875 104.066406 L 70.917969 104.066406 Z M 70.917969 7.949219 " clip-rule="nonzero"/></clipPath><clipPath id="6962c19cb2"><path d="M 118.421875 7.949219 C 92.1875 7.949219 70.917969 29.464844 70.917969 56 C 70.917969 82.539062 92.1875 104.050781 118.421875 104.050781 C 144.652344 104.050781 165.921875 82.539062 165.921875 56 C 165.921875 29.464844 144.652344 7.949219 118.421875 7.949219 Z M 118.421875 7.949219 " clip-rule="nonzero"/></clipPath><clipPath id="af7da8e07e"><path d="M 70.921875 7.949219 L 165.75 7.949219 L 165.75 104.273438 L 70.921875 104.273438 Z M 70.921875 7.949219 " clip-rule="nonzero"/></clipPath><clipPath id="d7b343839c"><path d="M 118.414062 7.949219 C 92.183594 7.949219 70.921875 29.460938 70.921875 55.996094 C 70.921875 82.53125 92.183594 104.039062 118.414062 104.039062 C 144.644531 104.039062 165.910156 82.53125 165.910156 55.996094 C 165.910156 29.460938 144.644531 7.949219 118.414062 7.949219 Z M 118.414062 7.949219 " clip-rule="nonzero"/></clipPath><clipPath id="d0cdcace89"><path d="M 87.53125 60.496094 L 94.011719 60.496094 L 94.011719 73.945312 L 87.53125 73.945312 Z M 87.53125 60.496094 " clip-rule="nonzero"/></clipPath><clipPath id="ba0f387f35"><path d="M 136.277344 56 L 145.230469 56 L 145.230469 59.734375 L 136.277344 59.734375 Z M 136.277344 56 " clip-rule="nonzero"/></clipPath></defs><g clip-path="url(#9f25667038)"><g clip-path="url(#6962c19cb2)"><path fill="#0f2164" d="M 70.917969 7.949219 L 165.921875 7.949219 L 165.921875 104.066406 L 70.917969 104.066406 Z M 70.917969 7.949219 " fill-opacity="1" fill-rule="nonzero"/></g></g><g clip-path="url(#af7da8e07e)"><g clip-path="url(#d7b343839c)"><path stroke-linecap="butt" transform="matrix(0.746681, 0, 0, 0.746681, 70.92097, 7.95109)" fill="none" stroke-linejoin="miter" d="M 63.605572 -0.00250627 C 28.476169 -0.00250627 0.00121167 28.807266 0.00121167 64.344725 C 0.00121167 99.882183 28.476169 128.686724 63.605572 128.686724 C 98.734975 128.686724 127.215164 99.882183 127.215164 64.344725 C 127.215164 28.807266 98.734975 -0.00250627 63.605572 -0.00250627 Z M 63.605572 -0.00250627 " stroke="#dcb408" stroke-width="30" stroke-opacity="1" stroke-miterlimit="4"/></g></g><g fill="#ffffff" fill-opacity="1"><g transform="translate(85.785568, 59.840718)"><g><path d="M 20.390625 0 L 20.390625 -7.609375 C 20.390625 -8.546875 20.421875 -9.507812 20.484375 -10.5 C 20.554688 -11.488281 20.632812 -12.320312 20.71875 -13 C 20.800781 -13.675781 20.851562 -14.101562 20.875 -14.28125 L 20.75 -14.28125 L 16.859375 0 L 11.5625 0 L 7.640625 -14.25 L 7.515625 -14.25 C 7.535156 -14.070312 7.585938 -13.648438 7.671875 -12.984375 C 7.765625 -12.316406 7.851562 -11.488281 7.9375 -10.5 C 8.019531 -9.507812 8.0625 -8.546875 8.0625 -7.609375 L 8.0625 0 L 1.84375 0 L 1.84375 -21.09375 L 11.40625 -21.09375 L 14.59375 -8.921875 L 14.71875 -8.921875 L 17.875 -21.09375 L 27.09375 -21.09375 L 27.09375 0 Z M 20.390625 0 "/></g></g></g><path stroke-linecap="butt" transform="matrix(0.0845482, 0, 0, 0.0845482, 101.880399, 31.286343)" fill="none" stroke-linejoin="miter" d="M 265.270985 325.983286 L 195.414417 325.983286 L 195.414417 241.573265 L 109.110137 108.513134 L 189.40823 108.513134 L 231.174327 180.910782 L 232.375564 180.910782 L 274.141661 108.513134 L 350.327826 108.513134 L 265.270985 241.573265 Z M 265.270985 325.983286 " stroke="#272727" stroke-width="45.050236" stroke-opacity="1" stroke-miterlimit="4"/><g fill="#dcb408" fill-opacity="1"><g transform="translate(110.917813, 58.849069)"><g><path d="M 13.390625 0 L 7.484375 0 L 7.484375 -7.140625 L 0.1875 -18.390625 L 6.984375 -18.390625 L 10.5 -12.265625 L 10.609375 -12.265625 L 14.140625 -18.390625 L 20.578125 -18.390625 L 13.390625 -7.140625 Z M 13.390625 0 "/></g></g></g><g clip-path="url(#d0cdcace89)"><path fill="#ffffff" d="M 87.53125 60.496094 L 94.011719 60.496094 L 94.011719 73.941406 L 87.53125 73.941406 Z M 87.53125 60.496094 " fill-opacity="1" fill-rule="nonzero"/></g><g clip-path="url(#ba0f387f35)"><path fill="#ffffff" d="M 136.277344 56 L 145.234375 56 L 145.234375 59.734375 L 136.277344 59.734375 Z M 136.277344 56 " fill-opacity="1" fill-rule="nonzero"/></g><path stroke-linecap="butt" transform="matrix(0.746681, -0.000000000000000278, 0.000000000000000278, 0.746681, 84.261301, 36.945994)" fill="none" stroke-linejoin="miter" d="M 0.000558993 0.501309 L 17.431857 0.501309 " stroke="#dcb408" stroke-width="1" stroke-opacity="1" stroke-miterlimit="4"/><g fill="#ffffff" fill-opacity="1"><g transform="translate(94.964297, 68.210583)"><g><path d="M 0.359375 -4.90625 L 1.78125 -4.90625 C 2.457031 -4.90625 3.035156 -4.671875 3.515625 -4.203125 C 4.003906 -3.734375 4.25 -3.148438 4.25 -2.453125 C 4.25 -1.742188 4.003906 -1.15625 3.515625 -0.6875 C 3.035156 -0.226562 2.457031 0 1.78125 0 L 0.359375 0 Z M 1.46875 -1 L 1.640625 -1 C 2.046875 -1 2.378906 -1.132812 2.640625 -1.40625 C 2.898438 -1.6875 3.035156 -2.035156 3.046875 -2.453125 C 3.046875 -2.859375 2.914062 -3.203125 2.65625 -3.484375 C 2.394531 -3.765625 2.054688 -3.90625 1.640625 -3.90625 L 1.46875 -3.90625 Z M 1.46875 -1 "/></g></g></g><g fill="#ffffff" fill-opacity="1"><g transform="translate(99.732844, 68.210583)"><g><path d="M 1.46875 -4.90625 L 1.46875 0 L 0.359375 0 L 0.359375 -4.90625 Z M 1.46875 -4.90625 "/></g></g></g><g fill="#ffffff" fill-opacity="1"><g transform="translate(101.947872, 68.210583)"><g><path d="M 4.78125 -2.75 L 4.78125 -1.6875 C 4.65625 -1.101562 4.378906 -0.660156 3.953125 -0.359375 C 3.523438 -0.0546875 3.050781 0.09375 2.53125 0.09375 C 1.863281 0.09375 1.296875 -0.148438 0.828125 -0.640625 C 0.367188 -1.140625 0.140625 -1.742188 0.140625 -2.453125 C 0.140625 -3.160156 0.363281 -3.757812 0.8125 -4.25 C 1.269531 -4.738281 1.84375 -4.984375 2.53125 -4.984375 C 3.320312 -4.984375 3.945312 -4.707031 4.40625 -4.15625 L 3.6875 -3.34375 C 3.425781 -3.769531 3.0625 -3.984375 2.59375 -3.984375 C 2.25 -3.984375 1.953125 -3.832031 1.703125 -3.53125 C 1.460938 -3.226562 1.34375 -2.867188 1.34375 -2.453125 C 1.34375 -2.035156 1.460938 -1.675781 1.703125 -1.375 C 1.953125 -1.082031 2.25 -0.9375 2.59375 -0.9375 C 2.875 -0.9375 3.117188 -1.019531 3.328125 -1.1875 C 3.546875 -1.363281 3.65625 -1.59375 3.65625 -1.875 L 2.53125 -1.875 L 2.53125 -2.75 Z M 4.78125 -2.75 "/></g></g></g><g fill="#ffffff" fill-opacity="1"><g transform="translate(107.256816, 68.210583)"><g><path d="M 1.46875 -4.90625 L 1.46875 0 L 0.359375 0 L 0.359375 -4.90625 Z M 1.46875 -4.90625 "/></g></g></g><g fill="#ffffff" fill-opacity="1"><g transform="translate(109.471844, 68.210583)"><g><path d="M 0.046875 -3.921875 L 0.046875 -4.90625 L 3.484375 -4.90625 L 3.484375 -3.921875 L 2.328125 -3.921875 L 2.328125 0 L 1.21875 0 L 1.21875 -3.921875 Z M 0.046875 -3.921875 "/></g></g></g><g fill="#ffffff" fill-opacity="1"><g transform="translate(113.397136, 68.210583)"><g><path d="M 2.84375 -4.90625 L 4.828125 0 L 3.625 0 L 3.265625 -0.984375 L 1.390625 -0.984375 L 1.03125 0 L -0.171875 0 L 1.8125 -4.90625 Z M 2.875 -1.953125 L 2.328125 -3.390625 L 1.78125 -1.953125 Z M 2.875 -1.953125 "/></g></g></g><g fill="#ffffff" fill-opacity="1"><g transform="translate(118.438848, 68.210583)"><g><path d="M 1.46875 -4.90625 L 1.46875 -0.984375 L 3.15625 -0.984375 L 3.15625 0 L 0.359375 0 L 0.359375 -4.90625 Z M 1.46875 -4.90625 "/></g></g></g><g fill="#ffffff" fill-opacity="1"><g transform="translate(122.180046, 68.210583)"><g/></g></g><g fill="#ffffff" fill-opacity="1"><g transform="translate(124.187224, 68.210583)"><g><path d="M 2.84375 -4.90625 L 4.828125 0 L 3.625 0 L 3.265625 -0.984375 L 1.390625 -0.984375 L 1.03125 0 L -0.171875 0 L 1.8125 -4.90625 Z M 2.875 -1.953125 L 2.328125 -3.390625 L 1.78125 -1.953125 Z M 2.875 -1.953125 "/></g></g></g><g fill="#ffffff" fill-opacity="1"><g transform="translate(129.228938, 68.210583)"><g><path d="M 4.78125 -2.75 L 4.78125 -1.6875 C 4.65625 -1.101562 4.378906 -0.660156 3.953125 -0.359375 C 3.523438 -0.0546875 3.050781 0.09375 2.53125 0.09375 C 1.863281 0.09375 1.296875 -0.148438 0.828125 -0.640625 C 0.367188 -1.140625 0.140625 -1.742188 0.140625 -2.453125 C 0.140625 -3.160156 0.363281 -3.757812 0.8125 -4.25 C 1.269531 -4.738281 1.84375 -4.984375 2.53125 -4.984375 C 3.320312 -4.984375 3.945312 -4.707031 4.40625 -4.15625 L 3.6875 -3.34375 C 3.425781 -3.769531 3.0625 -3.984375 2.59375 -3.984375 C 2.25 -3.984375 1.953125 -3.832031 1.703125 -3.53125 C 1.460938 -3.226562 1.34375 -2.867188 1.34375 -2.453125 C 1.34375 -2.035156 1.460938 -1.675781 1.703125 -1.375 C 1.953125 -1.082031 2.25 -0.9375 2.59375 -0.9375 C 2.875 -0.9375 3.117188 -1.019531 3.328125 -1.1875 C 3.546875 -1.363281 3.65625 -1.59375 3.65625 -1.875 L 2.53125 -1.875 L 2.53125 -2.75 Z M 4.78125 -2.75 "/></g></g></g><g fill="#ffffff" fill-opacity="1"><g transform="translate(134.537881, 68.210583)"><g><path d="M 3.15625 -4.90625 L 3.15625 -3.921875 L 1.46875 -3.921875 L 1.46875 -2.9375 L 3.09375 -2.9375 L 3.09375 -1.96875 L 1.46875 -1.96875 L 1.46875 -0.984375 L 3.15625 -0.984375 L 3.15625 0 L 0.359375 0 L 0.359375 -4.90625 Z M 3.15625 -4.90625 "/></g></g></g><g fill="#ffffff" fill-opacity="1"><g transform="translate(138.368158, 68.210583)"><g><path d="M 1.46875 -3.046875 L 1.46875 0 L 0.359375 0 L 0.359375 -4.90625 L 1.46875 -4.90625 L 3.421875 -1.859375 L 3.4375 -1.859375 L 3.4375 -4.90625 L 4.546875 -4.90625 L 4.546875 0 L 3.4375 0 L 1.484375 -3.046875 Z M 1.46875 -3.046875 "/></g></g></g><g fill="#ffffff" fill-opacity="1"><g transform="translate(143.659281, 68.210583)"><g><path d="M 2.96875 -1.015625 C 3.132812 -1.015625 3.296875 -1.035156 3.453125 -1.078125 C 3.617188 -1.128906 3.738281 -1.179688 3.8125 -1.234375 L 3.921875 -1.3125 L 4.40625 -0.359375 C 4.382812 -0.347656 4.359375 -0.332031 4.328125 -0.3125 C 4.304688 -0.289062 4.242188 -0.253906 4.140625 -0.203125 C 4.035156 -0.148438 3.925781 -0.101562 3.8125 -0.0625 C 3.695312 -0.0195312 3.546875 0.015625 3.359375 0.046875 C 3.179688 0.078125 2.992188 0.09375 2.796875 0.09375 C 2.335938 0.09375 1.90625 -0.015625 1.5 -0.234375 C 1.09375 -0.460938 0.765625 -0.769531 0.515625 -1.15625 C 0.265625 -1.550781 0.140625 -1.976562 0.140625 -2.4375 C 0.140625 -2.78125 0.210938 -3.109375 0.359375 -3.421875 C 0.503906 -3.742188 0.695312 -4.015625 0.9375 -4.234375 C 1.1875 -4.460938 1.472656 -4.644531 1.796875 -4.78125 C 2.117188 -4.914062 2.453125 -4.984375 2.796875 -4.984375 C 3.109375 -4.984375 3.394531 -4.945312 3.65625 -4.875 C 3.925781 -4.800781 4.117188 -4.726562 4.234375 -4.65625 L 4.40625 -4.53125 L 3.921875 -3.59375 C 3.898438 -3.613281 3.859375 -3.640625 3.796875 -3.671875 C 3.742188 -3.703125 3.632812 -3.742188 3.46875 -3.796875 C 3.300781 -3.859375 3.132812 -3.890625 2.96875 -3.890625 C 2.695312 -3.890625 2.453125 -3.84375 2.234375 -3.75 C 2.023438 -3.664062 1.859375 -3.550781 1.734375 -3.40625 C 1.609375 -3.269531 1.507812 -3.117188 1.4375 -2.953125 C 1.375 -2.785156 1.34375 -2.617188 1.34375 -2.453125 C 1.34375 -2.078125 1.484375 -1.742188 1.765625 -1.453125 C 2.046875 -1.160156 2.445312 -1.015625 2.96875 -1.015625 Z M 2.96875 -1.015625 "/></g></g></g><g fill="#ffffff" fill-opacity="1"><g transform="translate(148.516899, 68.210583)"><g><path d="M -0.171875 -4.90625 L 1.15625 -4.90625 L 2.1875 -3.328125 L 3.203125 -4.90625 L 4.546875 -4.90625 L 2.75 -2.203125 L 2.75 0 L 1.625 0 L 1.625 -2.203125 Z M -0.171875 -4.90625 "/></g></g></g><path stroke-linecap="butt" transform="matrix(0.0839752, 0, 0, 0.0839752, 118.420304, 31.098338)" fill="none" stroke-linejoin="miter" d="M 276.002311 325.980934 L 266.885037 295.372944 L 190.644161 295.372944 L 181.526888 325.980934 L 110.077232 325.980934 L 189.388211 108.515348 L 270.65289 108.515348 L 350.010385 325.980934 Z M 205.203889 246.669956 L 252.325309 246.669956 L 229.532125 169.173129 L 228.276174 169.173129 Z M 205.203889 246.669956 " stroke="#272727" stroke-width="45.050236" stroke-opacity="1" stroke-miterlimit="4"/><g fill="#dcb408" fill-opacity="1"><g transform="translate(127.396466, 58.474257)"><g><path d="M 14.203125 0 L 13.4375 -2.578125 L 7.03125 -2.578125 L 6.265625 0 L 0.265625 0 L 6.921875 -18.265625 L 13.75 -18.265625 L 20.421875 0 Z M 8.25 -6.65625 L 12.21875 -6.65625 L 10.296875 -13.171875 L 10.1875 -13.171875 Z M 8.25 -6.65625 "/></g></g></g></svg>